<mxfile host="app.diagrams.net" modified="2023-10-16T09:41:39.053Z" agent="Mozilla/5.0 (Windows NT 10.0; Win64; x64) AppleWebKit/537.36 (KHTML, like Gecko) Chrome/117.0.0.0 Safari/537.36" etag="-YaonbdX8BgaYK997Ieb" version="22.0.4" type="google">
  <diagram name="Pagina-1" id="GHyYJyhCs43PJS3-UoVc">
    <mxGraphModel grid="1" page="1" gridSize="10" guides="1" tooltips="1" connect="1" arrows="1" fold="1" pageScale="1" pageWidth="827" pageHeight="1169" math="0" shadow="0">
      <root>
        <mxCell id="0" />
        <mxCell id="1" parent="0" />
        <mxCell id="s8yl29TEmUkYiSCiZ-3f-55" value="" style="rounded=1;whiteSpace=wrap;html=1;" vertex="1" parent="1">
          <mxGeometry x="1230" y="1400" width="490" height="480" as="geometry" />
        </mxCell>
        <mxCell id="s8yl29TEmUkYiSCiZ-3f-54" value="" style="rounded=1;whiteSpace=wrap;html=1;" vertex="1" parent="1">
          <mxGeometry x="120" y="1600" width="490" height="480" as="geometry" />
        </mxCell>
        <mxCell id="s8yl29TEmUkYiSCiZ-3f-53" value="" style="rounded=1;whiteSpace=wrap;html=1;" vertex="1" parent="1">
          <mxGeometry x="-960" y="1400" width="490" height="480" as="geometry" />
        </mxCell>
        <mxCell id="s8yl29TEmUkYiSCiZ-3f-5" value="" style="rounded=1;whiteSpace=wrap;html=1;movable=1;resizable=1;rotatable=1;deletable=1;editable=1;locked=0;connectable=1;" vertex="1" parent="1">
          <mxGeometry x="-1160" y="245" width="610" height="565" as="geometry" />
        </mxCell>
        <mxCell id="s8yl29TEmUkYiSCiZ-3f-2" value="" style="rounded=1;whiteSpace=wrap;html=1;movable=0;resizable=0;rotatable=0;deletable=0;editable=0;locked=1;connectable=0;" vertex="1" parent="1">
          <mxGeometry x="-420" y="125" width="1720" height="1115" as="geometry" />
        </mxCell>
        <mxCell id="s8yl29TEmUkYiSCiZ-3f-1" value="" style="image;aspect=fixed;perimeter=ellipsePerimeter;html=1;align=center;shadow=0;dashed=0;spacingTop=3;image=img/lib/active_directory/internet_globe.svg;" vertex="1" parent="1">
          <mxGeometry x="282" y="-830" width="210" height="210" as="geometry" />
        </mxCell>
        <mxCell id="s8yl29TEmUkYiSCiZ-3f-3" value="" style="image;html=1;image=img/lib/clip_art/networking/Wireless_Router_128x128.png" vertex="1" parent="1">
          <mxGeometry x="327" y="530" width="113" height="110" as="geometry" />
        </mxCell>
        <mxCell id="s8yl29TEmUkYiSCiZ-3f-4" value="" style="image;html=1;image=img/lib/clip_art/computers/Server_Rack_128x128.png" vertex="1" parent="1">
          <mxGeometry x="-980" y="260" width="170" height="170" as="geometry" />
        </mxCell>
        <mxCell id="s8yl29TEmUkYiSCiZ-3f-8" style="edgeStyle=orthogonalEdgeStyle;rounded=0;orthogonalLoop=1;jettySize=auto;html=1;exitX=0.75;exitY=1;exitDx=0;exitDy=0;" edge="1" parent="1" source="s8yl29TEmUkYiSCiZ-3f-7">
          <mxGeometry relative="1" as="geometry">
            <mxPoint x="-639.9999999999995" y="220" as="targetPoint" />
          </mxGeometry>
        </mxCell>
        <mxCell id="s8yl29TEmUkYiSCiZ-3f-7" value="&lt;font style=&quot;font-size: 40px;&quot;&gt;DMZ&lt;/font&gt;" style="text;strokeColor=none;align=center;fillColor=none;html=1;verticalAlign=middle;whiteSpace=wrap;rounded=0;" vertex="1" parent="1">
          <mxGeometry x="-1190" y="60" width="190" height="90" as="geometry" />
        </mxCell>
        <mxCell id="s8yl29TEmUkYiSCiZ-3f-11" value="" style="image;html=1;image=img/lib/clip_art/networking/Switch_128x128.png" vertex="1" parent="1">
          <mxGeometry x="-190" y="534" width="110" height="100" as="geometry" />
        </mxCell>
        <mxCell id="s8yl29TEmUkYiSCiZ-3f-12" value="" style="image;html=1;image=img/lib/clip_art/networking/Switch_128x128.png" vertex="1" parent="1">
          <mxGeometry x="920" y="560" width="110" height="100" as="geometry" />
        </mxCell>
        <mxCell id="s8yl29TEmUkYiSCiZ-3f-13" value="" style="image;html=1;image=img/lib/clip_art/networking/Switch_128x128.png" vertex="1" parent="1">
          <mxGeometry x="356" y="890" width="116" height="105" as="geometry" />
        </mxCell>
        <mxCell id="s8yl29TEmUkYiSCiZ-3f-14" value="" style="image;sketch=0;aspect=fixed;html=1;points=[];align=center;fontSize=12;image=img/lib/mscae/Azure_Firewall.svg;" vertex="1" parent="1">
          <mxGeometry x="290" y="-10" width="230" height="230" as="geometry" />
        </mxCell>
        <mxCell id="s8yl29TEmUkYiSCiZ-3f-17" value="" style="outlineConnect=0;dashed=0;verticalLabelPosition=bottom;verticalAlign=top;align=center;html=1;shape=mxgraph.aws3.waf;fillColor=#759C3E;gradientColor=none;" vertex="1" parent="1">
          <mxGeometry x="-840" y="-80" width="190" height="190" as="geometry" />
        </mxCell>
        <mxCell id="s8yl29TEmUkYiSCiZ-3f-19" value="&lt;span style=&quot;font-size: 40px;&quot;&gt;WAF&lt;/span&gt;" style="text;strokeColor=none;align=center;fillColor=none;html=1;verticalAlign=middle;whiteSpace=wrap;rounded=0;" vertex="1" parent="1">
          <mxGeometry x="-840" y="-190" width="190" height="90" as="geometry" />
        </mxCell>
        <mxCell id="s8yl29TEmUkYiSCiZ-3f-21" value="&lt;span class=&quot;cursor-hover&quot; style=&quot;font-size: 40px;&quot;&gt;LAN&lt;/span&gt;" style="text;strokeColor=none;align=center;fillColor=none;html=1;verticalAlign=middle;whiteSpace=wrap;rounded=0;" vertex="1" parent="1">
          <mxGeometry x="800" y="960" width="190" height="90" as="geometry" />
        </mxCell>
        <mxCell id="s8yl29TEmUkYiSCiZ-3f-22" value="" style="image;html=1;image=img/lib/clip_art/computers/Server_Rack_128x128.png" vertex="1" parent="1">
          <mxGeometry x="-935" y="567.5" width="160" height="170" as="geometry" />
        </mxCell>
        <mxCell id="s8yl29TEmUkYiSCiZ-3f-23" value="&lt;span class=&quot;cursor-hover&quot; style=&quot;font-size: 40px;&quot;&gt;HTTP&lt;/span&gt;" style="text;strokeColor=none;align=center;fillColor=none;html=1;verticalAlign=middle;whiteSpace=wrap;rounded=0;" vertex="1" parent="1">
          <mxGeometry x="-970" y="430" width="160" height="70" as="geometry" />
        </mxCell>
        <mxCell id="s8yl29TEmUkYiSCiZ-3f-24" value="&lt;span class=&quot;cursor-hover&quot; style=&quot;font-size: 40px;&quot;&gt;SMTP&lt;/span&gt;" style="text;strokeColor=none;align=center;fillColor=none;html=1;verticalAlign=middle;whiteSpace=wrap;rounded=0;" vertex="1" parent="1">
          <mxGeometry x="-813.55" y="690" width="160" height="70" as="geometry" />
        </mxCell>
        <mxCell id="s8yl29TEmUkYiSCiZ-3f-25" value="" style="image;points=[];aspect=fixed;html=1;align=center;shadow=0;dashed=0;image=img/lib/allied_telesis/computer_and_terminals/Personal_Computer.svg;" vertex="1" parent="1">
          <mxGeometry x="230.00000000000003" y="1680" width="88.55" height="120" as="geometry" />
        </mxCell>
        <mxCell id="s8yl29TEmUkYiSCiZ-3f-26" value="" style="image;points=[];aspect=fixed;html=1;align=center;shadow=0;dashed=0;image=img/lib/allied_telesis/computer_and_terminals/Personal_Computer.svg;" vertex="1" parent="1">
          <mxGeometry x="-870" y="1480" width="105.6" height="143.12" as="geometry" />
        </mxCell>
        <mxCell id="s8yl29TEmUkYiSCiZ-3f-27" value="" style="image;points=[];aspect=fixed;html=1;align=center;shadow=0;dashed=0;image=img/lib/allied_telesis/computer_and_terminals/Personal_Computer.svg;" vertex="1" parent="1">
          <mxGeometry x="400" y="1870" width="88.54" height="120" as="geometry" />
        </mxCell>
        <mxCell id="s8yl29TEmUkYiSCiZ-3f-28" value="" style="image;points=[];aspect=fixed;html=1;align=center;shadow=0;dashed=0;image=img/lib/allied_telesis/computer_and_terminals/Personal_Computer.svg;" vertex="1" parent="1">
          <mxGeometry x="1460" y="1450" width="103.79" height="140.66" as="geometry" />
        </mxCell>
        <mxCell id="s8yl29TEmUkYiSCiZ-3f-31" value="" style="group" connectable="0" vertex="1" parent="1">
          <mxGeometry x="1470" y="290" width="680" height="760" as="geometry" />
        </mxCell>
        <mxCell id="s8yl29TEmUkYiSCiZ-3f-6" value="" style="rounded=1;whiteSpace=wrap;html=1;movable=0;resizable=0;rotatable=0;deletable=0;editable=0;locked=1;connectable=0;" vertex="1" parent="s8yl29TEmUkYiSCiZ-3f-31">
          <mxGeometry y="105" width="680" height="655" as="geometry" />
        </mxCell>
        <mxCell id="s8yl29TEmUkYiSCiZ-3f-9" value="" style="image;html=1;image=img/lib/clip_art/computers/Server_Rack_128x128.png" vertex="1" parent="s8yl29TEmUkYiSCiZ-3f-31">
          <mxGeometry x="340" y="140" width="110" height="140" as="geometry" />
        </mxCell>
        <mxCell id="s8yl29TEmUkYiSCiZ-3f-10" value="" style="fontColor=#0066CC;verticalAlign=top;verticalLabelPosition=bottom;labelPosition=center;align=center;html=1;outlineConnect=0;fillColor=#CCCCCC;strokeColor=#6881B3;gradientColor=none;gradientDirection=north;strokeWidth=2;shape=mxgraph.networks.nas_filer;" vertex="1" parent="s8yl29TEmUkYiSCiZ-3f-31">
          <mxGeometry x="30" y="290" width="150" height="80" as="geometry" />
        </mxCell>
        <mxCell id="s8yl29TEmUkYiSCiZ-3f-70" style="edgeStyle=orthogonalEdgeStyle;rounded=0;orthogonalLoop=1;jettySize=auto;html=1;exitX=1;exitY=0.5;exitDx=0;exitDy=0;" edge="1" parent="s8yl29TEmUkYiSCiZ-3f-31" source="s8yl29TEmUkYiSCiZ-3f-16">
          <mxGeometry relative="1" as="geometry">
            <mxPoint x="380" y="102.5" as="targetPoint" />
          </mxGeometry>
        </mxCell>
        <mxCell id="s8yl29TEmUkYiSCiZ-3f-16" value="&lt;font class=&quot;cursor-hover&quot; style=&quot;font-size: 40px;&quot;&gt;Server Room&lt;br&gt;&lt;br&gt;&lt;/font&gt;" style="text;strokeColor=none;align=center;fillColor=none;html=1;verticalAlign=middle;whiteSpace=wrap;rounded=0;" vertex="1" parent="s8yl29TEmUkYiSCiZ-3f-31">
          <mxGeometry x="110" width="190" height="90" as="geometry" />
        </mxCell>
        <mxCell id="s8yl29TEmUkYiSCiZ-3f-29" value="&lt;span class=&quot;cursor-hover&quot; style=&quot;font-size: 40px;&quot;&gt;NAS&lt;/span&gt;" style="text;strokeColor=none;align=center;fillColor=none;html=1;verticalAlign=middle;whiteSpace=wrap;rounded=0;" vertex="1" parent="s8yl29TEmUkYiSCiZ-3f-31">
          <mxGeometry x="30" y="384" width="160" height="70" as="geometry" />
        </mxCell>
        <mxCell id="s8yl29TEmUkYiSCiZ-3f-30" value="&lt;span class=&quot;cursor-hover&quot; style=&quot;&quot;&gt;&lt;font style=&quot;font-size: 33px;&quot;&gt;APP SERVER&lt;/font&gt;&lt;/span&gt;" style="text;strokeColor=none;align=center;fillColor=none;html=1;verticalAlign=middle;whiteSpace=wrap;rounded=0;" vertex="1" parent="s8yl29TEmUkYiSCiZ-3f-31">
          <mxGeometry x="315" y="300" width="160" height="70" as="geometry" />
        </mxCell>
        <mxCell id="s8yl29TEmUkYiSCiZ-3f-44" value="" style="image;html=1;image=img/lib/clip_art/computers/Server_Rack_128x128.png" vertex="1" parent="s8yl29TEmUkYiSCiZ-3f-31">
          <mxGeometry x="355" y="430" width="160" height="180" as="geometry" />
        </mxCell>
        <mxCell id="s8yl29TEmUkYiSCiZ-3f-45" value="&lt;font class=&quot;cursor-hover&quot; style=&quot;font-size: 40px;&quot;&gt;DNS&lt;br&gt;&lt;/font&gt;" style="text;strokeColor=none;align=center;fillColor=none;html=1;verticalAlign=middle;whiteSpace=wrap;rounded=0;" vertex="1" parent="s8yl29TEmUkYiSCiZ-3f-31">
          <mxGeometry x="340" y="620" width="190" height="90" as="geometry" />
        </mxCell>
        <mxCell id="s8yl29TEmUkYiSCiZ-3f-32" value="" style="endArrow=none;html=1;rounded=0;entryX=0.5;entryY=1;entryDx=0;entryDy=0;" edge="1" parent="1" target="s8yl29TEmUkYiSCiZ-3f-1">
          <mxGeometry width="50" height="50" relative="1" as="geometry">
            <mxPoint x="387" y="100" as="sourcePoint" />
            <mxPoint x="411.5" y="-70" as="targetPoint" />
          </mxGeometry>
        </mxCell>
        <mxCell id="s8yl29TEmUkYiSCiZ-3f-33" value="" style="endArrow=none;html=1;rounded=0;entryX=1;entryY=0.5;entryDx=0;entryDy=0;exitX=0;exitY=0.5;exitDx=0;exitDy=0;" edge="1" parent="1" source="s8yl29TEmUkYiSCiZ-3f-11" target="s8yl29TEmUkYiSCiZ-3f-22">
          <mxGeometry width="50" height="50" relative="1" as="geometry">
            <mxPoint x="-100" y="440" as="sourcePoint" />
            <mxPoint x="-100" y="-30" as="targetPoint" />
          </mxGeometry>
        </mxCell>
        <mxCell id="s8yl29TEmUkYiSCiZ-3f-34" value="" style="endArrow=none;html=1;rounded=0;entryX=1;entryY=0.5;entryDx=0;entryDy=0;exitX=0;exitY=0.5;exitDx=0;exitDy=0;" edge="1" parent="1" source="s8yl29TEmUkYiSCiZ-3f-11" target="s8yl29TEmUkYiSCiZ-3f-4">
          <mxGeometry width="50" height="50" relative="1" as="geometry">
            <mxPoint x="-80" y="270" as="sourcePoint" />
            <mxPoint x="-340" y="355" as="targetPoint" />
          </mxGeometry>
        </mxCell>
        <mxCell id="s8yl29TEmUkYiSCiZ-3f-35" value="" style="endArrow=none;html=1;rounded=0;entryX=1;entryY=0.5;entryDx=0;entryDy=0;exitX=0;exitY=0.5;exitDx=0;exitDy=0;" edge="1" parent="1" source="s8yl29TEmUkYiSCiZ-3f-9" target="s8yl29TEmUkYiSCiZ-3f-12">
          <mxGeometry width="50" height="50" relative="1" as="geometry">
            <mxPoint x="1230" y="415" as="sourcePoint" />
            <mxPoint x="780" y="330" as="targetPoint" />
          </mxGeometry>
        </mxCell>
        <mxCell id="s8yl29TEmUkYiSCiZ-3f-36" value="" style="endArrow=none;html=1;rounded=0;entryX=0.5;entryY=1;entryDx=0;entryDy=0;" edge="1" parent="1" source="s8yl29TEmUkYiSCiZ-3f-25" target="s8yl29TEmUkYiSCiZ-3f-13">
          <mxGeometry width="50" height="50" relative="1" as="geometry">
            <mxPoint x="567" y="922.203389830509" as="sourcePoint" />
            <mxPoint x="780" y="1370" as="targetPoint" />
          </mxGeometry>
        </mxCell>
        <mxCell id="s8yl29TEmUkYiSCiZ-3f-37" value="" style="endArrow=none;html=1;rounded=0;entryX=0.25;entryY=0;entryDx=0;entryDy=0;exitX=0.5;exitY=1;exitDx=0;exitDy=0;" edge="1" parent="1" source="s8yl29TEmUkYiSCiZ-3f-3" target="s8yl29TEmUkYiSCiZ-3f-13">
          <mxGeometry width="50" height="50" relative="1" as="geometry">
            <mxPoint x="597" y="540" as="sourcePoint" />
            <mxPoint x="177" y="590" as="targetPoint" />
          </mxGeometry>
        </mxCell>
        <mxCell id="s8yl29TEmUkYiSCiZ-3f-38" value="" style="endArrow=none;html=1;rounded=0;entryX=0.5;entryY=1;entryDx=0;entryDy=0;" edge="1" parent="1" source="s8yl29TEmUkYiSCiZ-3f-26" target="s8yl29TEmUkYiSCiZ-3f-13">
          <mxGeometry width="50" height="50" relative="1" as="geometry">
            <mxPoint x="797" y="850" as="sourcePoint" />
            <mxPoint x="377" y="900" as="targetPoint" />
          </mxGeometry>
        </mxCell>
        <mxCell id="s8yl29TEmUkYiSCiZ-3f-39" value="" style="endArrow=none;html=1;rounded=0;entryX=0.5;entryY=1;entryDx=0;entryDy=0;" edge="1" parent="1" source="s8yl29TEmUkYiSCiZ-3f-27" target="s8yl29TEmUkYiSCiZ-3f-13">
          <mxGeometry width="50" height="50" relative="1" as="geometry">
            <mxPoint x="800" y="880" as="sourcePoint" />
            <mxPoint x="780" y="1370" as="targetPoint" />
          </mxGeometry>
        </mxCell>
        <mxCell id="s8yl29TEmUkYiSCiZ-3f-40" value="" style="endArrow=none;html=1;rounded=0;entryX=0.5;entryY=1;entryDx=0;entryDy=0;" edge="1" parent="1" source="s8yl29TEmUkYiSCiZ-3f-28" target="s8yl29TEmUkYiSCiZ-3f-13">
          <mxGeometry width="50" height="50" relative="1" as="geometry">
            <mxPoint x="940" y="840" as="sourcePoint" />
            <mxPoint x="896" y="1370" as="targetPoint" />
          </mxGeometry>
        </mxCell>
        <mxCell id="s8yl29TEmUkYiSCiZ-3f-41" value="" style="endArrow=none;html=1;rounded=0;entryX=1;entryY=0.5;entryDx=0;entryDy=0;exitX=0;exitY=0.75;exitDx=0;exitDy=0;" edge="1" parent="1" source="s8yl29TEmUkYiSCiZ-3f-3" target="s8yl29TEmUkYiSCiZ-3f-11">
          <mxGeometry width="50" height="50" relative="1" as="geometry">
            <mxPoint x="510.48" y="500" as="sourcePoint" />
            <mxPoint x="90.48000000000002" y="550" as="targetPoint" />
          </mxGeometry>
        </mxCell>
        <mxCell id="s8yl29TEmUkYiSCiZ-3f-42" value="" style="endArrow=none;html=1;rounded=0;entryX=1;entryY=0.75;entryDx=0;entryDy=0;exitX=0;exitY=0.5;exitDx=0;exitDy=0;" edge="1" parent="1" source="s8yl29TEmUkYiSCiZ-3f-12" target="s8yl29TEmUkYiSCiZ-3f-3">
          <mxGeometry width="50" height="50" relative="1" as="geometry">
            <mxPoint x="851.9" y="490" as="sourcePoint" />
            <mxPoint x="431.9" y="540" as="targetPoint" />
          </mxGeometry>
        </mxCell>
        <mxCell id="s8yl29TEmUkYiSCiZ-3f-43" value="" style="endArrow=none;html=1;rounded=0;entryX=1;entryY=0.5;entryDx=0;entryDy=0;exitX=0;exitY=0.5;exitDx=0;exitDy=0;exitPerimeter=0;" edge="1" parent="1" source="s8yl29TEmUkYiSCiZ-3f-10" target="s8yl29TEmUkYiSCiZ-3f-12">
          <mxGeometry width="50" height="50" relative="1" as="geometry">
            <mxPoint x="1070" y="657.5" as="sourcePoint" />
            <mxPoint x="650" y="707.5" as="targetPoint" />
          </mxGeometry>
        </mxCell>
        <mxCell id="s8yl29TEmUkYiSCiZ-3f-49" value="" style="image;points=[];aspect=fixed;html=1;align=center;shadow=0;dashed=0;image=img/lib/allied_telesis/computer_and_terminals/Personal_Computer.svg;" vertex="1" parent="1">
          <mxGeometry x="-768.55" y="1720" width="88.55" height="120" as="geometry" />
        </mxCell>
        <mxCell id="s8yl29TEmUkYiSCiZ-3f-50" value="" style="endArrow=none;html=1;rounded=0;entryX=0.5;entryY=1;entryDx=0;entryDy=0;" edge="1" parent="1" source="s8yl29TEmUkYiSCiZ-3f-49" target="s8yl29TEmUkYiSCiZ-3f-13">
          <mxGeometry width="50" height="50" relative="1" as="geometry">
            <mxPoint x="277" y="982.203389830509" as="sourcePoint" />
            <mxPoint x="110" y="850" as="targetPoint" />
          </mxGeometry>
        </mxCell>
        <mxCell id="s8yl29TEmUkYiSCiZ-3f-51" value="" style="image;points=[];aspect=fixed;html=1;align=center;shadow=0;dashed=0;image=img/lib/allied_telesis/computer_and_terminals/Personal_Computer.svg;" vertex="1" parent="1">
          <mxGeometry x="1320" y="1660" width="88.55" height="120" as="geometry" />
        </mxCell>
        <mxCell id="s8yl29TEmUkYiSCiZ-3f-52" value="" style="endArrow=none;html=1;rounded=0;entryX=0.5;entryY=1;entryDx=0;entryDy=0;" edge="1" parent="1" source="s8yl29TEmUkYiSCiZ-3f-51" target="s8yl29TEmUkYiSCiZ-3f-13">
          <mxGeometry width="50" height="50" relative="1" as="geometry">
            <mxPoint x="1247" y="1039.703389830509" as="sourcePoint" />
            <mxPoint x="896" y="1370" as="targetPoint" />
          </mxGeometry>
        </mxCell>
        <mxCell id="s8yl29TEmUkYiSCiZ-3f-56" value="&lt;span class=&quot;cursor-hover&quot; style=&quot;font-size: 40px;&quot;&gt;VLAN1&lt;br&gt;COMMERCE&lt;br&gt;&lt;/span&gt;" style="text;strokeColor=none;align=center;fillColor=none;html=1;verticalAlign=middle;whiteSpace=wrap;rounded=0;" vertex="1" parent="1">
          <mxGeometry x="672" y="1830" width="190" height="90" as="geometry" />
        </mxCell>
        <mxCell id="s8yl29TEmUkYiSCiZ-3f-57" value="&lt;span class=&quot;cursor-hover&quot; style=&quot;font-size: 40px;&quot;&gt;VLAN3&lt;br&gt;DIRIGENZA&lt;br&gt;&lt;/span&gt;" style="text;strokeColor=none;align=center;fillColor=none;html=1;verticalAlign=middle;whiteSpace=wrap;rounded=0;" vertex="1" parent="1">
          <mxGeometry x="-768.5500000000002" y="1920" width="190" height="90" as="geometry" />
        </mxCell>
        <mxCell id="s8yl29TEmUkYiSCiZ-3f-58" value="&lt;span class=&quot;cursor-hover&quot; style=&quot;font-size: 40px;&quot;&gt;VLAN2&lt;br&gt;STOCK&lt;br&gt;&lt;/span&gt;" style="text;strokeColor=none;align=center;fillColor=none;html=1;verticalAlign=middle;whiteSpace=wrap;rounded=0;" vertex="1" parent="1">
          <mxGeometry x="1770" y="1720" width="190" height="90" as="geometry" />
        </mxCell>
        <mxCell id="s8yl29TEmUkYiSCiZ-3f-59" value="" style="endArrow=none;html=1;rounded=0;entryX=0;entryY=0.75;entryDx=0;entryDy=0;exitX=0.71;exitY=0.09;exitDx=0;exitDy=0;exitPerimeter=0;" edge="1" parent="1" source="s8yl29TEmUkYiSCiZ-3f-17" target="s8yl29TEmUkYiSCiZ-3f-1">
          <mxGeometry width="50" height="50" relative="1" as="geometry">
            <mxPoint x="-190" y="-134" as="sourcePoint" />
            <mxPoint x="699" y="-480" as="targetPoint" />
          </mxGeometry>
        </mxCell>
        <mxCell id="s8yl29TEmUkYiSCiZ-3f-48" value="" style="endArrow=none;html=1;rounded=0;exitX=0;exitY=0.75;exitDx=0;exitDy=0;entryX=1;entryY=0.5;entryDx=0;entryDy=0;" edge="1" parent="1" source="s8yl29TEmUkYiSCiZ-3f-44" target="s8yl29TEmUkYiSCiZ-3f-12">
          <mxGeometry width="50" height="50" relative="1" as="geometry">
            <mxPoint x="1220" y="680" as="sourcePoint" />
            <mxPoint x="720" y="420" as="targetPoint" />
          </mxGeometry>
        </mxCell>
        <mxCell id="s8yl29TEmUkYiSCiZ-3f-65" value="" style="verticalLabelPosition=bottom;sketch=0;html=1;fillColor=#282828;strokeColor=none;verticalAlign=top;pointerEvents=1;align=center;shape=mxgraph.cisco_safe.security_icons.ids;" vertex="1" parent="1">
          <mxGeometry x="650" y="585" width="90" height="60" as="geometry" />
        </mxCell>
        <mxCell id="s8yl29TEmUkYiSCiZ-3f-67" value="&lt;font class=&quot;cursor-hover&quot; style=&quot;font-size: 26px;&quot;&gt;IDS&lt;/font&gt;" style="text;strokeColor=none;align=center;fillColor=none;html=1;verticalAlign=middle;whiteSpace=wrap;rounded=0;" vertex="1" parent="1">
          <mxGeometry x="665" y="645" width="60" height="30" as="geometry" />
        </mxCell>
        <mxCell id="s8yl29TEmUkYiSCiZ-3f-68" value="" style="verticalLabelPosition=bottom;sketch=0;html=1;fillColor=#282828;strokeColor=none;verticalAlign=top;pointerEvents=1;align=center;shape=mxgraph.cisco_safe.security_icons.ids;" vertex="1" parent="1">
          <mxGeometry x="60" y="567.5" width="90" height="60" as="geometry" />
        </mxCell>
        <mxCell id="s8yl29TEmUkYiSCiZ-3f-69" value="&lt;font class=&quot;cursor-hover&quot; style=&quot;font-size: 26px;&quot;&gt;IPS&lt;/font&gt;" style="text;strokeColor=none;align=center;fillColor=none;html=1;verticalAlign=middle;whiteSpace=wrap;rounded=0;" vertex="1" parent="1">
          <mxGeometry x="75" y="630" width="60" height="30" as="geometry" />
        </mxCell>
        <mxCell id="s8yl29TEmUkYiSCiZ-3f-73" value="&lt;span class=&quot;cursor-hover&quot; style=&quot;font-size: 40px;&quot;&gt;(PERMESSI TRAMITE TRUNK)&lt;/span&gt;" style="text;strokeColor=none;align=center;fillColor=none;html=1;verticalAlign=middle;whiteSpace=wrap;rounded=0;" vertex="1" parent="1">
          <mxGeometry x="880" y="710" width="190" height="90" as="geometry" />
        </mxCell>
        <mxCell id="s8yl29TEmUkYiSCiZ-3f-74" value="" style="endArrow=none;html=1;rounded=0;entryX=0.401;entryY=0.957;entryDx=0;entryDy=0;entryPerimeter=0;exitX=0.5;exitY=0;exitDx=0;exitDy=0;" edge="1" parent="1" source="s8yl29TEmUkYiSCiZ-3f-3" target="s8yl29TEmUkYiSCiZ-3f-14">
          <mxGeometry width="50" height="50" relative="1" as="geometry">
            <mxPoint x="382.25" y="495" as="sourcePoint" />
            <mxPoint x="382.25" y="245" as="targetPoint" />
          </mxGeometry>
        </mxCell>
        <mxCell id="s8yl29TEmUkYiSCiZ-3f-77" value="Actor" style="shape=umlActor;verticalLabelPosition=bottom;verticalAlign=top;html=1;outlineConnect=0;" vertex="1" parent="1">
          <mxGeometry x="-940" y="930" width="200" height="340" as="geometry" />
        </mxCell>
        <mxCell id="s8yl29TEmUkYiSCiZ-3f-79" value="&lt;font class=&quot;cursor-hover&quot; style=&quot;font-size: 38px;&quot;&gt;OLMO IT SECURITY&lt;br&gt;&lt;br&gt;&lt;/font&gt;" style="text;strokeColor=none;align=center;fillColor=none;html=1;verticalAlign=middle;whiteSpace=wrap;rounded=0;" vertex="1" parent="1">
          <mxGeometry x="-1190.0000000000002" y="1050" width="190" height="90" as="geometry" />
        </mxCell>
      </root>
    </mxGraphModel>
  </diagram>
</mxfile>
